<?xml version="1.0" encoding="utf-8"?>
<!-- Generator: Adobe Illustrator 26.0.1, SVG Export Plug-In . SVG Version: 6.00 Build 0)  -->
<svg version="1.1" id="Lager_1" xmlns="http://www.w3.org/2000/svg" xmlns:xlink="http://www.w3.org/1999/xlink" x="0px" y="0px"
	 viewBox="0 0 161.7 146.7" style="enable-background:new 0 0 161.7 146.7;" xml:space="preserve">
<style type="text/css">
	.st0{fill:#FF8C1A;}
</style>
<rect x="79.3" y="94.1" width="4" height="8"/>
<rect x="79.3" y="46.1" width="4" height="8"/>
<rect x="53.3" y="72.1" width="8" height="4"/>
<rect x="101.3" y="72.1" width="8" height="4"/>
<rect x="96.2" y="87.1" transform="matrix(0.7071 -0.7071 0.7071 0.7071 -35.647 96.1382)" width="4" height="8"/>
<rect x="62.3" y="53.2" transform="matrix(0.7071 -0.7071 0.7071 0.7071 -21.5886 62.1982)" width="4" height="8"/>
<rect x="60.3" y="89.1" transform="matrix(0.7071 -0.7071 0.7071 0.7071 -45.5847 72.1445)" width="8" height="4"/>
<rect x="94.2" y="55.2" transform="matrix(0.7071 -0.7071 0.7071 0.7071 -11.646 86.2018)" width="8" height="4"/>
<path d="M106.7,142.2c-7.2,0-15.4-2.8-24-8.2c-13.4-8.5-26.2-22.7-36.1-39.8S30.9,58.8,30.2,42.9c-0.7-16.3,4.1-28.3,13.6-33.8
	s22.2-3.6,36,5.1C93.1,22.8,106,37,115.9,54.1s15.7,35.3,16.4,51.2c0.7,16.3-4.1,28.3-13.6,33.8
	C115.2,141.1,111.1,142.2,106.7,142.2z M55.8,10.1c-3.7,0-7.1,0.8-10.1,2.6C37.7,17.3,33.6,28,34.2,42.8
	c0.7,15.2,6.3,32.7,15.9,49.4c9.6,16.6,21.9,30.3,34.8,38.5c12.4,7.9,23.8,9.7,31.9,5.1c8.1-4.7,12.2-15.4,11.6-30.1
	c-0.7-15.2-6.3-32.7-15.9-49.4c-9.6-16.6-21.9-30.3-34.8-38.5C69.7,12.7,62.3,10.1,55.8,10.1z"/>
<path d="M55.8,142.2c-4.4,0-8.5-1-12-3.1c-9.5-5.5-14.3-17.5-13.6-33.8c0.7-15.8,6.5-34,16.4-51.2s22.7-31.3,36.1-39.8
	c13.8-8.8,26.6-10.6,36-5.1c9.5,5.5,14.3,17.4,13.6,33.8c-0.7,15.8-6.5,34-16.4,51.2s-22.7,31.3-36.1,39.8
	C71.2,139.4,63,142.2,55.8,142.2L55.8,142.2z M106.7,10.1c-6.5,0-13.9,2.6-21.8,7.6c-12.8,8.2-25.2,21.8-34.8,38.5
	c-9.6,16.6-15.2,34.1-15.9,49.4c-0.7,14.7,3.5,25.4,11.6,30.1c8.1,4.7,19.4,2.9,31.9-5.1c12.8-8.2,25.2-21.8,34.8-38.5
	c9.6-16.6,15.2-34.1,15.9-49.4c0.6-14.7-3.5-25.4-11.6-30.1C113.8,10.9,110.4,10.1,106.7,10.1L106.7,10.1z"/>
<path d="M81.3,114.1c-19.8,0-38.5-4-52.5-11.3C14.2,95.2,6.3,85.1,6.3,74.1s8-21.1,22.5-28.6c14.1-7.3,32.7-11.3,52.5-11.3
	s38.5,4,52.5,11.3c14.5,7.5,22.5,17.7,22.5,28.6s-8,21.1-22.5,28.6C119.7,110.1,101.1,114.1,81.3,114.1z M81.3,38.2
	c-39.1,0-71,16.1-71,36s31.9,36,71,36s71-16.1,71-36S120.4,38.2,81.3,38.2L81.3,38.2z"/>
<circle class="st0" cx="81.3" cy="74.1" r="15"/>
<path d="M81.3,91.1c-9.4,0-17-7.6-17-17s7.6-17,17-17s17,7.6,17,17S90.6,91.1,81.3,91.1z M81.3,61.1c-7.2,0-13,5.8-13,13
	s5.8,13,13,13s13-5.8,13-13S88.4,61.1,81.3,61.1z"/>
</svg>
